<svg xmlns="http://www.w3.org/2000/svg" width="600" height="800" viewBox="0 0 600 800" fill="none">
  <defs>
    <linearGradient id="bg4" x1="0" y1="0" x2="600" y2="800" gradientUnits="userSpaceOnUse">
      <stop stop-color="#0C4A6E"/>
      <stop offset="1" stop-color="#0369A1"/>
    </linearGradient>
  </defs>
  <rect width="600" height="800" rx="32" fill="url(#bg4)"/>
  <rect x="28" y="28" width="544" height="744" rx="24" stroke="#FFFFFF" stroke-opacity="0.1"/>
  <text x="60" y="100" fill="#BAE6FD" font-family="ui-sans-serif, system-ui, sans-serif" font-size="13" font-weight="700" letter-spacing="2.5">GOOGLE REVIEW CARD</text>
  <text x="60" y="170" fill="#F0F9FF" font-family="ui-sans-serif, system-ui, sans-serif" font-size="38" font-weight="700">Sofia Alvarez</text>
  <text x="60" y="214" fill="#7DD3FC" font-family="ui-sans-serif, system-ui, sans-serif" font-size="17">Brand Strategist</text>
  <rect x="60" y="260" width="480" height="200" rx="20" fill="#082F49" fill-opacity="0.65"/>
  <text x="90" y="320" fill="#F0F9FF" font-family="ui-sans-serif, system-ui, sans-serif" font-size="18" font-weight="600">Collect 5-star reviews</text>
  <text x="90" y="354" fill="#BAE6FD" font-family="ui-sans-serif, system-ui, sans-serif" font-size="14">One tap opens your Google review page</text>
  <g transform="translate(90 390)">
    <path d="M12 2l2.4 7.2H22l-6 4.4 2.3 7.2L12 16.4 5.7 20.8 8 13.6 2 9.2h7.6z" fill="#FACC15"/>
    <path d="M42 2l2.4 7.2H52l-6 4.4 2.3 7.2L42 16.4 35.7 20.8 38 13.6 32 9.2h7.6z" fill="#FACC15"/>
    <path d="M72 2l2.4 7.2H82l-6 4.4 2.3 7.2L72 16.4 65.7 20.8 68 13.6 62 9.2h7.6z" fill="#FACC15"/>
    <path d="M102 2l2.4 7.2H112l-6 4.4 2.3 7.2L102 16.4 95.7 20.8 98 13.6 92 9.2h7.6z" fill="#FACC15"/>
    <path d="M132 2l2.4 7.2H142l-6 4.4 2.3 7.2L132 16.4 125.7 20.8 128 13.6 122 9.2h7.6z" fill="#FACC15"/>
  </g>
  <rect x="60" y="510" width="480" height="56" rx="16" fill="#F0F9FF"/>
  <text x="185" y="545" fill="#0C4A6E" font-family="ui-sans-serif, system-ui, sans-serif" font-size="16" font-weight="700">Leave a Google Review</text>
  <rect x="60" y="590" width="220" height="90" rx="16" fill="#FFFFFF" fill-opacity="0.1"/>
  <text x="88" y="630" fill="#E0F2FE" font-family="ui-sans-serif, system-ui, sans-serif" font-size="24" font-weight="700">4.9</text>
  <text x="88" y="658" fill="#7DD3FC" font-family="ui-sans-serif, system-ui, sans-serif" font-size="13">Average rating</text>
  <rect x="300" y="590" width="240" height="90" rx="16" fill="#FFFFFF" fill-opacity="0.1"/>
  <text x="330" y="630" fill="#E0F2FE" font-family="ui-sans-serif, system-ui, sans-serif" font-size="24" font-weight="700">2.4k+</text>
  <text x="330" y="658" fill="#7DD3FC" font-family="ui-sans-serif, system-ui, sans-serif" font-size="13">Reviews collected</text>
  <text x="60" y="740" fill="#7DD3FC" font-family="ui-sans-serif, system-ui, sans-serif" font-size="13">Built for clinics, stores &amp; agencies</text>
</svg>
