<svg xmlns="http://www.w3.org/2000/svg" width="600" height="800" viewBox="0 0 600 800" fill="none">
  <defs>
    <linearGradient id="bg1" x1="0" y1="0" x2="600" y2="800" gradientUnits="userSpaceOnUse">
      <stop stop-color="#0B1220"/>
      <stop offset="1" stop-color="#152238"/>
    </linearGradient>
    <linearGradient id="accent1" x1="60" y1="60" x2="280" y2="200" gradientUnits="userSpaceOnUse">
      <stop stop-color="#38BDF8"/>
      <stop offset="1" stop-color="#0EA5E9"/>
    </linearGradient>
    <filter id="soft1" x="-20%" y="-20%" width="140%" height="140%">
      <feGaussianBlur stdDeviation="18" result="b"/>
      <feMerge><feMergeNode in="b"/><feMergeNode in="SourceGraphic"/></feMerge>
    </filter>
  </defs>
  <rect width="600" height="800" rx="32" fill="url(#bg1)"/>
  <circle cx="520" cy="80" r="120" fill="#38BDF8" opacity="0.12"/>
  <circle cx="60" cy="720" r="100" fill="#0EA5E9" opacity="0.1"/>
  <rect x="28" y="28" width="544" height="744" rx="24" stroke="#FFFFFF" stroke-opacity="0.08"/>
  <circle cx="88" cy="100" r="22" fill="url(#accent1)"/>
  <text x="124" y="108" fill="#F8FAFC" font-family="ui-sans-serif, system-ui, -apple-system, Segoe UI, sans-serif" font-size="20" font-weight="700" letter-spacing="0.5">HexaCards</text>
  <text x="60" y="220" fill="#94A3B8" font-family="ui-sans-serif, system-ui, sans-serif" font-size="14" font-weight="600" letter-spacing="3">DIGITAL BUSINESS CARD</text>
  <text x="60" y="290" fill="#F8FAFC" font-family="ui-sans-serif, system-ui, sans-serif" font-size="44" font-weight="700">Aarav Mehta</text>
  <text x="60" y="336" fill="#7DD3FC" font-family="ui-sans-serif, system-ui, sans-serif" font-size="18" font-weight="500">Founder &amp; CEO</text>
  <rect x="60" y="380" width="480" height="1" fill="#FFFFFF" fill-opacity="0.1"/>
  <text x="60" y="430" fill="#CBD5E1" font-family="ui-sans-serif, system-ui, sans-serif" font-size="15">aarav@hexacards.io</text>
  <text x="60" y="466" fill="#CBD5E1" font-family="ui-sans-serif, system-ui, sans-serif" font-size="15">+91 98765 43210</text>
  <text x="60" y="502" fill="#CBD5E1" font-family="ui-sans-serif, system-ui, sans-serif" font-size="15">Mumbai, India</text>
  <rect x="60" y="560" width="180" height="48" rx="24" fill="#F8FAFC"/>
  <text x="98" y="590" fill="#0B1220" font-family="ui-sans-serif, system-ui, sans-serif" font-size="15" font-weight="700">Save Contact</text>
  <rect x="256" y="560" width="180" height="48" rx="24" stroke="#F8FAFC" stroke-opacity="0.35"/>
  <text x="306" y="590" fill="#F8FAFC" font-family="ui-sans-serif, system-ui, sans-serif" font-size="15" font-weight="600">Share</text>
  <rect x="420" y="660" width="100" height="100" rx="14" fill="#F8FAFC"/>
  <rect x="436" y="676" width="68" height="68" rx="6" fill="#0B1220"/>
  <rect x="448" y="688" width="18" height="18" fill="#F8FAFC"/>
  <rect x="474" y="688" width="18" height="18" fill="#F8FAFC"/>
  <rect x="448" y="714" width="18" height="18" fill="#F8FAFC"/>
  <rect x="474" y="714" width="10" height="10" fill="#F8FAFC"/>
  <text x="60" y="740" fill="#64748B" font-family="ui-sans-serif, system-ui, sans-serif" font-size="13">Tap once · Connect instantly</text>
</svg>
