<svg xmlns="http://www.w3.org/2000/svg" width="600" height="800" viewBox="0 0 600 800" fill="none">
  <defs>
    <linearGradient id="bg5" x1="0" y1="0" x2="600" y2="800" gradientUnits="userSpaceOnUse">
      <stop stop-color="#111827"/>
      <stop offset="1" stop-color="#1F2937"/>
    </linearGradient>
    <linearGradient id="ring5" x1="236" y1="140" x2="364" y2="268" gradientUnits="userSpaceOnUse">
      <stop stop-color="#7C3AED"/>
      <stop offset="1" stop-color="#06B6D4"/>
    </linearGradient>
  </defs>
  <rect width="600" height="800" rx="32" fill="url(#bg5)"/>
  <circle cx="520" cy="700" r="130" fill="#7C3AED" opacity="0.15"/>
  <circle cx="60" cy="80" r="90" fill="#06B6D4" opacity="0.12"/>
  <rect x="28" y="28" width="544" height="744" rx="24" stroke="#FFFFFF" stroke-opacity="0.08"/>
  <text x="60" y="90" fill="#A78BFA" font-family="ui-sans-serif, system-ui, sans-serif" font-size="13" font-weight="700" letter-spacing="2.5">TEAM EDITION</text>
  <circle cx="300" cy="200" r="66" fill="url(#ring5)"/>
  <circle cx="300" cy="200" r="56" fill="#111827"/>
  <text x="266" y="212" fill="#F9FAFB" font-family="ui-sans-serif, system-ui, sans-serif" font-size="30" font-weight="700">JP</text>
  <text x="168" y="310" fill="#F9FAFB" font-family="ui-sans-serif, system-ui, sans-serif" font-size="34" font-weight="700">Jonah Park</text>
  <text x="198" y="350" fill="#9CA3AF" font-family="ui-sans-serif, system-ui, sans-serif" font-size="16">Platform Lead · HexaCards</text>
  <rect x="100" y="390" width="400" height="1" fill="#FFFFFF" fill-opacity="0.1"/>
  <rect x="100" y="430" width="400" height="56" rx="28" fill="#7C3AED"/>
  <text x="210" y="464" fill="#FFFFFF" font-family="ui-sans-serif, system-ui, sans-serif" font-size="16" font-weight="700">Save to Contacts</text>
  <rect x="100" y="506" width="400" height="56" rx="28" stroke="#4B5563"/>
  <text x="224" y="540" fill="#E5E7EB" font-family="ui-sans-serif, system-ui, sans-serif" font-size="16" font-weight="600">Open Dashboard</text>
  <g font-family="ui-sans-serif, system-ui, sans-serif">
    <rect x="100" y="600" width="120" height="70" rx="14" fill="#FFFFFF" fill-opacity="0.06"/>
    <text x="128" y="632" fill="#F9FAFB" font-size="18" font-weight="700">256</text>
    <text x="118" y="656" fill="#9CA3AF" font-size="11">Teammates</text>
    <rect x="240" y="600" width="120" height="70" rx="14" fill="#FFFFFF" fill-opacity="0.06"/>
    <text x="262" y="632" fill="#F9FAFB" font-size="18" font-weight="700">15.6k</text>
    <text x="268" y="656" fill="#9CA3AF" font-size="11">Profile views</text>
    <rect x="380" y="600" width="120" height="70" rx="14" fill="#FFFFFF" fill-opacity="0.06"/>
    <text x="410" y="632" fill="#F9FAFB" font-size="18" font-weight="700">98%</text>
    <text x="408" y="656" fill="#9CA3AF" font-size="11">Tap rate</text>
  </g>
  <text x="176" y="730" fill="#A78BFA" font-family="ui-sans-serif, system-ui, sans-serif" font-size="13">Equip your whole team</text>
</svg>
