<svg xmlns="http://www.w3.org/2000/svg" width="600" height="800" viewBox="0 0 600 800" fill="none">
  <defs>
    <linearGradient id="bg3" x1="0" y1="0" x2="1" y2="1">
      <stop stop-color="#052E16"/>
      <stop offset="1" stop-color="#14532D"/>
    </linearGradient>
  </defs>
  <rect width="600" height="800" rx="32" fill="url(#bg3)"/>
  <path d="M0 520 C120 480 220 580 340 540 C460 500 520 560 600 520 L600 800 L0 800 Z" fill="#166534" opacity="0.45"/>
  <rect x="28" y="28" width="544" height="744" rx="24" stroke="#FFFFFF" stroke-opacity="0.08"/>
  <rect x="60" y="70" width="160" height="40" rx="12" fill="#22C55E"/>
  <text x="82" y="96" fill="#052E16" font-family="ui-sans-serif, system-ui, sans-serif" font-size="14" font-weight="700">NFC ENABLED</text>
  <text x="60" y="200" fill="#F0FDF4" font-family="ui-sans-serif, system-ui, sans-serif" font-size="42" font-weight="700">Marcus Reed</text>
  <text x="60" y="248" fill="#86EFAC" font-family="ui-sans-serif, system-ui, sans-serif" font-size="18">Frontend Engineer</text>
  <rect x="60" y="300" width="480" height="1" fill="#22C55E" fill-opacity="0.35"/>
  <g font-family="ui-sans-serif, system-ui, sans-serif">
    <text x="60" y="360" fill="#BBF7D0" font-size="13" font-weight="600" letter-spacing="1.5">EMAIL</text>
    <text x="60" y="390" fill="#F0FDF4" font-size="16">marcus@hexacards.io</text>
    <text x="60" y="450" fill="#BBF7D0" font-size="13" font-weight="600" letter-spacing="1.5">LOCATION</text>
    <text x="60" y="480" fill="#F0FDF4" font-size="16">Austin, TX</text>
    <text x="60" y="540" fill="#BBF7D0" font-size="13" font-weight="600" letter-spacing="1.5">SPECIALTY</text>
    <text x="60" y="570" fill="#F0FDF4" font-size="16">Touch-first UI systems</text>
  </g>
  <circle cx="480" cy="680" r="56" fill="#22C55E" opacity="0.25"/>
  <circle cx="480" cy="680" r="28" fill="#4ADE80"/>
  <circle cx="480" cy="680" r="12" fill="#F0FDF4"/>
  <text x="60" y="730" fill="#86EFAC" font-family="ui-sans-serif, system-ui, sans-serif" font-size="14">Premium metal · Eco finish</text>
</svg>
